<svg version="1.1" id="Layer_1" xmlns="http://www.w3.org/2000/svg" xmlns:xlink="http://www.w3.org/1999/xlink" x="0px" y="0px"
	 width="100%" viewBox="0 0 2388 524" enable-background="new 0 0 2388 524" xml:space="preserve">
<path fill="#000000" opacity="1.000000" stroke="none" 
	d="
M2388.633057,395.664551 
	C2389.000000,437.490448 2388.947021,478.981049 2389.092041,520.471008 
	C2389.104736,524.148682 2388.352783,525.102051 2384.530762,525.099304 
	C2223.067871,524.983704 2061.604980,525.000000 1900.142212,525.000000 
	C1473.073975,525.000000 1046.005615,525.000000 618.468628,525.000000 
	C616.198059,523.657715 617.017456,522.491211 617.735779,520.756775 
	C618.748474,518.311890 620.438599,515.962830 620.199829,513.079773 
	C620.274658,512.417297 619.487305,513.203369 620.150269,513.133179 
	C620.320496,513.115173 620.390259,513.274719 620.307922,513.598755 
	C619.313660,517.511108 617.732971,521.164978 615.239380,524.760376 
	C411.957001,525.000000 208.914001,524.978516 5.871135,525.136902 
	C1.301428,525.140442 0.892188,523.773926 0.910677,519.876709 
	C1.067127,486.897491 1.000000,453.917267 1.000000,420.468658 
	C3.119531,417.322296 4.496788,418.724365 5.927129,420.793488 
	C10.460294,427.351074 16.972324,428.311859 24.130798,426.838226 
	C29.782522,425.674805 33.356529,422.077057 34.042377,416.327271 
	C35.011051,408.206512 34.501900,400.023834 34.341415,391.866943 
	C34.316303,390.590332 34.211864,388.694855 32.586517,388.734802 
	C30.646435,388.782501 30.716665,390.841187 30.649727,392.260071 
	C30.319891,399.251678 30.565874,406.251312 30.492422,413.247498 
	C30.450247,417.264709 29.391853,420.899750 25.924282,423.235046 
	C18.226772,428.419098 9.190763,423.510254 8.585332,413.758606 
	C8.255298,408.442657 8.243627,403.081909 8.572218,397.772552 
	C8.957901,391.540710 8.115103,386.210541 1.274101,383.273987 
	C1.000000,372.312439 1.000000,361.624878 1.000000,350.468658 
	C2.824377,347.471924 5.517170,347.488037 8.231565,347.492004 
	C21.223251,347.510986 34.214966,347.499420 47.206669,347.499756 
	C92.484467,347.500916 137.762268,347.499115 183.040070,347.500305 
	C125.409676,347.502167 67.779266,347.508270 10.148904,347.466614 
	C7.241146,347.464539 4.036005,348.308990 1.320292,345.330078 
	C1.000000,231.740463 1.022992,118.480911 0.897121,5.221516 
	C0.893037,1.546162 1.739236,0.904510 5.273160,0.908207 
	C112.869583,1.020757 220.466141,1.000000 328.531342,1.000000 
	C330.481720,2.157053 330.664520,3.390138 330.128510,5.323562 
	C321.448181,36.635830 314.619598,68.409668 306.690735,99.910851 
	C305.715240,103.786552 304.994843,107.731094 303.707672,111.521591 
	C301.632599,117.632187 299.109100,119.159546 292.754639,117.941589 
	C272.956635,114.146919 253.218445,110.048691 233.440063,106.154022 
	C210.393280,101.615738 187.421890,96.692032 164.294632,92.568871 
	C161.505936,92.071701 157.766510,90.266556 156.264389,93.911476 
	C154.819168,97.418343 158.576736,99.031059 160.855240,100.750702 
	C194.633774,126.244354 228.596268,151.493454 262.344086,177.028030 
	C268.773132,181.892441 269.334198,183.790543 266.765106,191.533447 
	C249.186203,244.513580 231.481720,297.451904 213.848801,350.414062 
	C213.007751,352.940308 212.005203,355.427643 211.628799,358.085449 
	C211.411255,359.621399 211.496643,361.177673 212.875031,362.170380 
	C214.470001,363.319092 216.063980,362.689850 217.533310,361.769958 
	C219.530182,360.519775 221.093826,358.766113 222.742630,357.120056 
	C257.294647,322.626251 291.768585,288.054352 326.341339,253.581314 
	C332.624786,247.316010 333.925537,247.063721 342.043549,251.110046 
	C376.045868,268.058197 410.008545,285.085724 444.000610,302.054443 
	C446.083069,303.094055 448.104065,304.352448 450.441223,304.722870 
	C453.628540,305.228058 455.248322,303.606354 454.725708,300.419617 
	C454.343323,298.088013 453.088806,296.065613 452.048309,293.981842 
	C435.447845,260.737061 418.809662,227.511185 402.208801,194.266617 
	C401.166779,192.179825 400.070465,190.115173 399.217743,187.941910 
	C398.070679,185.018570 398.555969,182.450226 400.860046,180.195160 
	C402.783722,178.312439 404.990936,176.837967 407.206024,175.357376 
	C430.062958,160.079590 452.973480,144.881882 475.794983,129.551422 
	C478.411102,127.794014 482.625214,126.341309 481.249817,122.247711 
	C480.010864,118.560074 475.903351,119.554337 472.871246,119.546906 
	C440.210876,119.466820 407.550293,119.511574 374.889771,119.494514 
	C366.123932,119.489937 364.079163,117.949585 361.899109,109.600182 
	C352.807892,74.781647 344.143463,39.852329 334.765381,5.108575 
	C334.384766,3.698475 334.182983,2.534770 335.728607,1.272901 
	C1018.710510,1.000000 1701.421021,1.003668 2384.131592,0.906939 
	C2387.937012,0.906400 2389.132812,1.320596 2389.127441,5.630077 
	C2388.969971,129.774124 2389.000000,253.918427 2389.000000,378.531342 
	C2385.572998,381.716034 2385.391602,378.128662 2384.270264,376.519592 
	C2376.679688,365.626129 2364.885742,362.901367 2353.784424,369.926086 
	C2343.904541,376.178070 2342.001953,391.950745 2349.500244,400.506134 
	C2359.612305,412.043854 2375.953857,411.178101 2384.718018,397.502808 
	C2385.493164,396.293518 2385.969727,394.217072 2388.633057,395.664551 
z"/>
<path fill="#238935" opacity="1.000000" stroke="none" 
	d="
M335.562500,1.000000 
	C341.737701,17.839424 345.311615,35.266155 349.889191,52.419144 
	C355.124817,72.037979 360.052887,91.739594 365.008514,111.431931 
	C366.190613,116.129242 369.269745,117.059456 373.579834,117.048546 
	C408.735809,116.959602 443.892059,116.987930 479.048248,117.013535 
	C484.869263,117.017769 486.676941,118.986794 485.991455,124.012283 
	C485.674835,126.333443 484.042236,127.236778 482.350281,128.365204 
	C456.769318,145.425461 431.218079,162.530228 405.668671,179.637756 
	C400.218689,183.287003 400.039825,183.924149 402.879120,189.608856 
	C420.875092,225.639435 438.894714,261.658264 456.856873,297.705719 
	C457.726288,299.450531 458.935089,301.095856 458.978424,303.217194 
	C459.078278,308.107666 454.764069,310.351776 449.651581,307.820770 
	C434.797760,300.467163 419.995605,293.009308 405.169250,285.600189 
	C383.227386,274.635254 361.236572,263.766602 339.377563,252.638977 
	C335.111572,250.467300 332.309113,250.947601 328.909485,254.355301 
	C292.785339,290.565491 256.515015,326.629852 220.284119,362.733551 
	C219.576035,363.439148 218.865326,364.142426 218.143951,364.834351 
	C215.729156,367.150482 212.903275,367.943970 209.986511,366.163422 
	C206.952393,364.311127 207.653152,361.110382 208.388657,358.478516 
	C209.853592,353.236511 211.791794,348.127228 213.518555,342.957825 
	C230.632233,291.724457 247.719330,240.482193 264.896606,189.270187 
	C266.327454,185.004349 265.310486,182.425934 261.617157,179.673294 
	C225.719223,152.918579 189.981812,125.948555 154.173645,99.073196 
	C151.646301,97.176331 150.260818,95.036293 151.677429,91.898766 
	C153.124115,88.694679 155.340729,88.048126 158.917007,88.764259 
	C203.448196,97.681503 248.020172,106.395073 292.575317,115.193016 
	C298.698730,116.402145 300.151337,115.729645 301.686798,109.502838 
	C305.875793,92.514893 309.894623,75.485001 313.984344,58.472561 
	C318.036255,41.617474 322.069611,24.757841 326.174194,7.915586 
	C326.719574,5.677833 327.720978,3.572156 329.090485,1.367231 
	C331.041656,1.000000 333.083344,1.000000 335.562500,1.000000 
z"/>
<path fill="#238935" opacity="1.000000" stroke="none" 
	d="
M1.000000,383.468658 
	C11.001163,381.558075 10.999393,381.558075 11.002271,391.798737 
	C11.004280,398.950928 10.811479,406.110352 11.070374,413.253357 
	C11.361527,421.286346 18.168600,425.361542 24.285971,421.400513 
	C27.243610,419.485474 28.014349,416.544037 28.005610,413.230591 
	C27.982796,404.581482 28.215931,395.924927 27.918703,387.286041 
	C27.757000,382.586212 30.703512,382.335663 33.906052,382.064270 
	C37.813705,381.733063 36.955269,384.718445 36.969593,386.852356 
	C37.034328,396.499084 37.037262,406.146698 36.984249,415.793549 
	C36.950428,421.948639 33.290783,426.964813 27.542681,428.975922 
	C16.885532,432.704498 9.938896,430.240692 1.352849,419.906067 
	C1.000000,407.979095 1.000000,395.958221 1.000000,383.468658 
z"/>
<path fill="#238935" opacity="1.000000" stroke="none" 
	d="
M1.000000,345.416656 
	C60.315033,345.000458 119.630066,345.000793 178.945099,345.001862 
	C180.444901,345.001892 181.949631,345.088470 183.443329,344.995117 
	C185.537338,344.864258 187.414948,345.544006 187.486954,347.690918 
	C187.576965,350.374420 185.154892,349.980408 183.392059,349.980347 
	C123.232658,349.978180 63.073250,349.957123 2.913849,349.933411 
	C2.583168,349.933258 2.252520,349.856293 1.460929,349.907593 
	C1.000000,348.611115 1.000000,347.222198 1.000000,345.416656 
z"/>
<path fill="#218833" opacity="1.000000" stroke="none" 
	d="
M2389.000000,395.532410 
	C2385.624512,396.505432 2385.465820,399.984833 2383.819580,401.982300 
	C2376.948486,410.318665 2366.392578,411.960388 2357.288818,408.581085 
	C2347.790039,405.055176 2342.149658,395.256348 2343.018311,384.734894 
	C2343.767822,375.660889 2351.437988,367.126923 2360.735596,365.022858 
	C2371.441895,362.600067 2381.689941,367.362000 2386.882080,377.233765 
	C2387.266602,377.965088 2387.397949,378.803864 2388.640869,379.069305 
	C2389.000000,384.354919 2389.000000,389.709869 2389.000000,395.532410 
z"/>
<path fill="#218833" opacity="1.000000" stroke="none" 
	d="
M615.375000,525.000000 
	C614.891663,522.640015 615.756226,520.575745 616.688965,518.449219 
	C617.638733,516.283752 618.762756,514.007751 616.120178,511.850220 
	C614.787354,510.762085 614.646423,508.905914 616.128418,507.447845 
	C617.279114,506.315704 618.276123,504.622131 620.243408,505.372650 
	C622.076111,506.071808 622.859314,507.515137 623.047974,509.604462 
	C623.568359,515.368225 619.818542,519.494080 617.898193,524.640747 
	C617.250000,525.000000 616.500000,525.000000 615.375000,525.000000 
z"/>
<path fill="#238935" opacity="1.000000" stroke="none" 
	d="
M1323.000000,284.000000 
	C1323.000122,242.177216 1322.997925,200.854416 1323.002686,159.531631 
	C1323.003418,153.064545 1323.018188,153.053055 1329.550293,153.048019 
	C1340.880737,153.039291 1352.217041,153.257217 1363.538696,152.942596 
	C1368.040649,152.817505 1369.100708,154.299957 1369.088257,158.610840 
	C1368.947998,207.098053 1368.759033,255.587708 1369.136841,304.072388 
	C1369.262085,320.144592 1370.850464,336.257233 1380.505249,350.134216 
	C1389.403564,362.924011 1401.970703,369.033936 1417.221802,371.150696 
	C1428.900757,372.771637 1440.073730,371.513184 1450.876831,367.498260 
	C1469.102661,360.724792 1478.031250,346.232849 1481.949463,328.040192 
	C1483.629028,320.241455 1484.073730,312.331726 1484.055176,304.333862 
	C1483.942993,256.013092 1484.071289,207.691711 1483.890991,159.371399 
	C1483.872559,154.411209 1485.039795,152.748581 1490.219727,152.920105 
	C1502.203613,153.316910 1514.211304,153.165634 1526.205322,152.979736 
	C1529.911133,152.922287 1531.072998,154.115082 1531.065796,157.838074 
	C1530.963623,211.157593 1531.456177,264.483368 1530.763916,317.794159 
	C1530.483643,339.388245 1525.172607,360.082794 1511.145142,377.585846 
	C1498.810547,392.976379 1482.896606,402.966522 1464.319702,408.907104 
	C1448.959595,413.819031 1433.055786,414.875183 1417.116577,413.894257 
	C1391.176514,412.297821 1367.855835,403.657257 1349.027954,385.252014 
	C1335.863281,372.382904 1328.415527,356.276855 1324.967896,338.221039 
	C1321.564575,320.396088 1323.571045,302.408600 1323.000000,284.000000 
z"/>
<path fill="#238935" opacity="1.000000" stroke="none" 
	d="
M2136.416016,250.458054 
	C2153.723389,213.904175 2170.858887,177.687805 2188.166748,141.106659 
	C2190.926025,143.632156 2191.757812,146.700165 2193.052979,149.443237 
	C2203.094971,170.711548 2213.069580,192.011780 2223.073730,213.297928 
	C2243.718262,257.223450 2264.349854,301.155090 2285.024414,345.066528 
	C2294.269775,364.703918 2303.625732,384.289246 2312.888428,403.918427 
	C2315.716553,409.910889 2315.625000,409.993591 2308.950928,409.997864 
	C2295.958008,410.006195 2282.962158,409.849121 2269.973877,410.095398 
	C2266.323730,410.164642 2264.731445,408.707672 2263.368164,405.625275 
	C2257.341553,391.997223 2251.047119,378.487854 2245.010254,364.864349 
	C2243.656250,361.809235 2241.750488,360.886993 2238.484863,360.897736 
	C2204.836914,361.008575 2171.188477,361.003143 2137.540283,360.904816 
	C2134.437988,360.895752 2132.827881,361.905670 2131.555420,364.760284 
	C2125.419922,378.522827 2118.977539,392.148590 2112.848877,405.914154 
	C2111.619629,408.674957 2110.338135,410.108368 2107.066895,410.067902 
	C2093.409912,409.898895 2079.748291,409.900269 2066.090820,410.053986 
	C2061.992676,410.100098 2061.645020,408.778961 2063.247803,405.418213 
	C2075.370605,379.994171 2087.432617,354.540833 2099.450928,329.067108 
	C2111.752197,302.994049 2123.982422,276.887451 2136.416016,250.458054 
z"/>
<path fill="#238935" opacity="1.000000" stroke="none" 
	d="
M1838.984741,346.019348 
	C1844.664185,342.552429 1850.184204,339.464996 1855.275513,335.784698 
	C1858.536743,333.427582 1860.110107,334.127594 1861.739624,337.365021 
	C1866.463867,346.750610 1873.437256,354.285370 1881.892700,360.344635 
	C1892.079102,367.644196 1903.578369,371.629059 1916.136841,371.947021 
	C1925.732056,372.189911 1935.314941,372.530121 1944.659546,369.057312 
	C1963.591187,362.021851 1971.994507,341.457306 1962.208008,324.603577 
	C1957.627075,316.714508 1949.781982,312.297363 1942.069336,308.072296 
	C1928.807251,300.807251 1914.245361,296.616821 1900.310791,290.937317 
	C1885.462158,284.885315 1871.369629,277.442200 1859.469360,266.658875 
	C1850.853271,258.851471 1845.030640,248.936829 1842.750244,237.322052 
	C1839.559937,221.073898 1839.309204,204.887573 1846.818481,189.683594 
	C1857.497437,168.061798 1875.877075,156.038101 1898.869141,151.193481 
	C1920.064941,146.727310 1941.029663,148.257980 1961.179688,156.953690 
	C1976.876953,163.727875 1989.105713,174.484879 1998.485596,188.726334 
	C2000.015991,191.050186 1999.199219,191.780273 1997.538452,192.909775 
	C1988.088013,199.336670 1978.640625,205.768250 1969.223633,212.243927 
	C1967.233765,213.612381 1966.252441,213.441620 1964.529907,211.314285 
	C1949.726074,193.030548 1930.474365,187.432175 1908.056885,193.054810 
	C1891.463623,197.216614 1883.203003,211.663910 1888.279907,226.692062 
	C1890.534790,233.367050 1895.331543,238.301834 1901.437744,241.719711 
	C1915.790649,249.753555 1931.418091,254.851761 1946.573364,261.039703 
	C1962.279663,267.452484 1977.344727,275.101715 1990.401123,286.076752 
	C2003.120361,296.768463 2010.140747,310.473785 2012.185059,327.153107 
	C2014.114502,342.894409 2012.400024,357.881439 2005.871704,372.234497 
	C1998.252686,388.985901 1985.200439,400.505646 1968.232422,406.582245 
	C1935.106934,418.445160 1901.915649,417.643463 1869.676636,403.113800 
	C1849.605713,394.068146 1835.265381,378.725098 1825.486816,359.041138 
	C1824.252319,356.556122 1823.982422,355.061340 1826.854980,353.522400 
	C1830.931519,351.338440 1834.727783,348.631226 1838.984741,346.019348 
z"/>
<path fill="#238935" opacity="1.000000" stroke="none" 
	d="
M1728.000000,410.000244 
	C1694.009277,409.999969 1660.517944,409.903168 1627.028442,410.107697 
	C1622.225098,410.136993 1620.891357,408.860138 1620.900269,404.010986 
	C1621.048950,322.367188 1621.047363,240.722946 1620.904053,159.079132 
	C1620.895508,154.264542 1622.183960,152.794876 1627.030640,152.936203 
	C1638.684204,153.276031 1650.361450,153.284866 1662.014282,152.932236 
	C1666.883423,152.784897 1668.116089,154.261337 1668.104858,159.062927 
	C1667.948853,225.377548 1667.999878,291.692657 1668.000244,358.007629 
	C1668.000244,359.673828 1668.174316,361.361572 1667.968994,363.001923 
	C1667.473877,366.957703 1669.100464,368.092041 1673.012939,368.074219 
	C1703.503906,367.935150 1733.996216,368.086151 1764.486694,367.904205 
	C1768.881348,367.877960 1770.223267,369.081970 1770.094360,373.504303 
	C1769.783813,384.158966 1769.876709,394.830719 1770.055786,405.491394 
	C1770.114136,408.974182 1768.971069,410.106995 1765.488770,410.060150 
	C1753.161133,409.894135 1740.829834,409.998413 1728.000000,410.000244 
z"/>
<path fill="#238935" opacity="1.000000" stroke="none" 
	d="
M514.060791,280.999268 
	C499.961426,274.903412 489.051086,266.091095 483.801910,251.456787 
	C481.936066,246.254974 480.911835,240.991119 480.936157,235.440063 
	C480.950043,232.274033 481.895264,230.952972 485.217163,231.016724 
	C493.543182,231.176529 501.875763,231.157700 510.202576,231.020905 
	C513.100159,230.973312 514.690735,232.137589 514.882446,234.901169 
	C515.849548,248.840546 524.500122,255.690613 537.061707,258.548096 
	C548.893921,261.239655 560.459778,260.399170 570.948120,253.661087 
	C579.685120,248.048172 579.687378,235.343033 571.230286,229.444016 
	C562.563293,223.398666 552.393250,221.563950 542.474548,219.041580 
	C532.383240,216.475296 522.276611,214.021927 512.608582,210.020172 
	C498.143494,204.032898 487.806519,194.413406 486.147278,178.164963 
	C484.398926,161.044479 490.180420,146.737457 504.757874,136.861755 
	C526.902161,121.859795 564.591736,122.009026 586.883423,136.970993 
	C599.202148,145.239166 605.031250,157.107620 606.023071,171.668350 
	C606.240234,174.856857 605.169189,176.117737 601.834534,176.050217 
	C593.175842,175.874908 584.511169,176.002182 575.848938,175.980469 
	C574.035400,175.975922 572.331848,176.177582 571.974487,173.399963 
	C570.076172,158.643677 561.383728,154.981293 549.997803,153.215088 
	C543.526428,152.211227 536.786438,152.542038 530.357056,154.987900 
	C522.614441,157.933350 517.937927,166.427200 520.234863,174.240753 
	C521.181335,177.460480 523.603394,179.471878 526.595703,180.837845 
	C537.340576,185.742798 548.895691,187.984131 560.210449,190.988098 
	C572.667114,194.295212 585.369446,196.826508 595.923401,205.027908 
	C605.404724,212.395859 610.436340,221.879593 611.056030,233.936325 
	C611.714722,246.751770 608.817078,258.225220 599.982849,267.891449 
	C592.718567,275.839905 583.644958,280.560669 573.380432,283.332092 
	C553.490234,288.702423 533.835815,288.353058 514.060791,280.999268 
z"/>
<path fill="#238935" opacity="1.000000" stroke="none" 
	d="
M729.001526,215.000000 
	C729.001587,225.333206 728.770569,235.173248 729.061340,244.997849 
	C729.408142,256.718628 728.802795,268.582092 732.842590,279.913330 
	C733.553223,281.906708 732.743774,282.785278 730.818909,282.790466 
	C721.486511,282.815704 712.153870,282.797211 702.821350,282.801453 
	C700.867981,282.802338 699.668640,281.706696 699.158264,279.987030 
	C698.502869,277.778503 698.082031,275.500336 697.430542,272.693695 
	C695.268616,274.208893 693.273132,275.804840 691.098083,277.099060 
	C679.177673,284.192322 666.340271,286.644592 652.523071,285.275909 
	C642.445740,284.277649 633.488220,281.448273 626.322388,273.894684 
	C622.299683,269.654327 619.600098,264.760132 618.714417,259.108246 
	C615.400146,237.959320 621.329041,223.391769 643.911865,217.021332 
	C656.050293,213.597183 668.685669,213.195084 681.042480,211.080841 
	C684.022217,210.570999 686.907959,209.758316 689.555664,208.555923 
	C693.272339,206.868057 695.989319,204.253403 696.089355,199.458572 
	C696.212402,193.562012 694.181641,189.020691 689.135254,186.131958 
	C683.661987,182.998871 666.585388,182.588501 660.667236,188.405396 
	C657.647400,191.373550 655.785034,194.704132 655.128174,198.634125 
	C654.692566,201.239914 653.537659,201.960052 651.187927,201.947784 
	C642.355042,201.901642 633.521606,201.904816 624.688660,201.944946 
	C621.909485,201.957596 621.334229,201.297943 621.704895,198.121872 
	C623.804993,180.126175 634.503052,169.808853 651.053894,165.111816 
	C670.072876,159.714340 689.261047,159.793335 708.144714,165.998596 
	C720.171143,169.950500 729.880005,178.937820 729.056274,195.003128 
	C728.723877,201.485977 729.001526,208.000107 729.001526,215.000000 
z"/>
<path fill="#238935" opacity="1.000000" stroke="none" 
	d="
M111.049530,282.059509 
	C96.276863,276.533875 89.041397,262.287415 90.663147,244.961670 
	C92.288589,227.596603 105.323051,219.018356 120.219612,216.122665 
	C132.034042,213.826096 144.074081,212.701981 155.908554,210.492661 
	C164.546036,208.880157 169.302979,203.956924 168.928391,198.450668 
	C168.369446,190.234619 163.623413,185.250397 154.509567,184.169418 
	C149.429169,183.566833 144.188431,183.489151 139.202835,185.122894 
	C133.282166,187.063049 129.037643,190.871887 128.085953,197.247345 
	C127.525284,201.003281 125.886368,202.184631 122.185181,202.068466 
	C114.360527,201.822906 106.515434,201.787262 98.693222,202.068542 
	C93.905121,202.240707 93.723854,200.153076 94.396347,196.268280 
	C97.235115,179.869598 107.399902,169.834946 122.663368,165.455490 
	C141.811081,159.961548 161.326462,159.847366 180.441345,166.083084 
	C195.173859,170.889145 201.996460,180.973297 201.997131,196.486420 
	C201.998032,217.317123 202.052414,238.148056 201.968857,258.978424 
	C201.942719,265.490631 202.584869,271.889557 204.590286,278.067963 
	C205.619217,281.237946 204.846634,282.124756 201.580200,282.054260 
	C193.584961,281.881592 185.575455,281.786499 177.587692,282.086456 
	C173.315460,282.246857 170.921539,281.174194 170.886337,276.518951 
	C170.877136,275.300812 170.060394,274.088745 169.614334,272.873413 
	C151.711212,286.113190 132.334015,288.957123 111.049530,282.059509 
z"/>
<path fill="#238935" opacity="1.000000" stroke="none" 
	d="
M856.270447,266.690002 
	C845.044067,253.356644 840.533875,237.913727 841.140808,221.257507 
	C842.164062,193.176071 857.415161,168.937927 887.451050,162.612503 
	C908.480774,158.183731 927.824890,161.756302 943.242004,177.884842 
	C953.079468,188.176208 957.835938,200.982971 958.956665,215.099426 
	C959.257996,218.894699 960.293213,222.583984 960.038391,226.476288 
	C959.747314,230.923004 958.589294,233.196091 953.294006,233.130722 
	C929.305969,232.834702 905.312195,232.997742 881.320496,233.005127 
	C874.635864,233.007187 874.027954,234.295624 875.476746,241.079422 
	C879.076355,257.934723 894.588989,261.095551 906.596924,259.575714 
	C915.001160,258.511993 922.534119,255.021698 926.942932,247.064682 
	C927.933594,245.276810 929.330688,244.999161 931.073547,245.003433 
	C938.570923,245.021790 946.068909,245.067657 953.565369,244.986511 
	C956.607605,244.953583 957.291504,245.788834 956.102600,248.811264 
	C948.085876,269.191345 933.944946,281.473328 911.674622,284.139587 
	C890.570007,286.666290 871.897400,282.320679 856.270447,266.690002 
z"/>
<path fill="#238935" opacity="1.000000" stroke="none" 
	d="
M37.000698,168.000000 
	C37.001175,195.147247 37.091915,221.795090 36.910698,248.441101 
	C36.881481,252.737076 37.927307,254.233597 42.443203,254.111938 
	C54.092854,253.798141 65.757965,254.107468 77.414047,253.952911 
	C80.809669,253.907883 82.174248,254.898407 82.057236,258.462158 
	C81.833282,265.283173 81.889999,272.118866 82.035789,278.944061 
	C82.099319,281.918304 81.118423,283.049316 78.036720,283.037476 
	C54.387661,282.946594 30.737520,282.902130 7.089198,283.062256 
	C2.553915,283.092957 2.997987,280.412140 2.999211,277.528046 
	C3.011999,247.383362 3.005771,217.238663 3.005768,187.093979 
	C3.005767,170.772537 3.105425,154.450104 2.936280,138.130417 
	C2.896574,134.299423 3.931668,132.823410 7.974583,132.963318 
	C16.125563,133.245377 24.296181,133.179245 32.452366,132.987473 
	C35.888863,132.906677 37.128025,133.997070 37.061596,137.523056 
	C36.873409,147.512222 36.998810,157.507263 37.000698,168.000000 
z"/>
<path fill="#238935" opacity="1.000000" stroke="none" 
	d="
M778.995911,176.000000 
	C778.995544,209.982407 778.900757,243.465363 779.101196,276.946564 
	C779.129822,281.726074 777.907776,283.363007 773.009644,283.096832 
	C765.535706,282.690643 758.012146,282.743866 750.531555,283.083282 
	C746.136475,283.282654 744.883057,281.917908 744.904114,277.493439 
	C745.075928,241.346588 744.999756,205.198563 744.999939,169.050903 
	C744.999939,158.556427 745.110779,148.060211 744.943054,137.568451 
	C744.888428,134.151337 745.919067,132.855408 749.465332,132.943970 
	C757.789124,133.151871 766.124512,133.138458 774.449158,132.949112 
	C777.909058,132.870422 779.096558,134.027542 779.052856,137.520782 
	C778.894592,150.178772 778.993835,162.839996 778.995911,176.000000 
z"/>
<path fill="#228933" opacity="1.000000" stroke="none" 
	d="
M794.141907,233.999954 
	C794.142334,202.209229 794.136169,170.918533 794.148743,139.627823 
	C794.151428,133.026306 794.183044,133.014481 800.824158,133.005081 
	C808.480408,132.994263 816.139526,133.132141 823.791443,132.951462 
	C827.101990,132.873291 828.049744,134.121170 828.044739,137.308990 
	C827.971130,184.411362 827.973511,231.513916 828.041870,278.616302 
	C828.046387,281.718811 827.268616,283.123810 823.867615,283.047150 
	C815.549927,282.859711 807.221558,282.845795 798.904602,283.051208 
	C795.032776,283.146881 794.084351,281.407990 794.107788,277.940521 
	C794.205750,263.460907 794.144653,248.980240 794.141907,233.999954 
z"/>
<path fill="#238935" opacity="1.000000" stroke="none" 
	d="
M1149.999268,444.000000 
	C1149.999268,311.885223 1149.991333,180.270432 1150.041992,48.655663 
	C1150.043335,45.127937 1148.551636,40.024715 1154.657837,40.166981 
	C1160.282227,40.298031 1158.956909,45.134907 1158.957886,48.544975 
	C1159.003540,201.318069 1158.999146,354.091187 1158.986694,506.864288 
	C1158.986450,510.614258 1159.769165,515.649902 1154.299805,515.535339 
	C1149.270264,515.429932 1150.006348,510.586121 1150.004517,506.975647 
	C1149.993774,486.150421 1149.999268,465.325226 1149.999268,444.000000 
z"/>
<path fill="#238935" opacity="1.000000" stroke="none" 
	d="
M820.000000,350.997864 
	C637.707520,350.997833 455.915039,350.998474 274.122559,350.989990 
	C271.960571,350.989868 269.781830,351.012878 267.642609,350.758667 
	C266.277954,350.596527 265.181427,349.758972 265.149963,348.114502 
	C265.112946,346.178314 266.486053,346.082367 267.866394,346.037659 
	C269.198273,345.994476 270.531982,345.999664 271.864899,345.999634 
	C499.647064,345.998230 727.429199,345.991455 955.211304,346.098541 
	C957.402527,346.099579 961.557068,344.068451 961.642761,348.184082 
	C961.733459,352.542999 957.426697,350.921387 954.969299,350.926697 
	C910.146362,351.023651 865.323181,350.997711 820.000000,350.997864 
z"/>
<path fill="#228834" opacity="1.000000" stroke="none" 
	d="
M598.602661,433.913147 
	C600.282410,432.298065 601.348633,430.935730 603.943726,431.800659 
	C606.859558,432.772552 604.836121,434.395874 605.111328,435.698517 
	C605.843079,439.161743 608.075623,441.328491 611.462952,441.859863 
	C615.106140,442.431427 618.566284,441.584747 620.424988,438.028290 
	C622.149963,434.727600 620.002258,432.980621 617.134155,432.223816 
	C614.596985,431.554260 611.934570,431.342224 609.319275,430.988770 
	C603.974426,430.266357 601.904663,426.722137 604.086975,421.852020 
	C604.663208,420.566101 605.634583,419.816559 603.988770,418.173615 
	C598.179626,412.374908 597.432312,407.780792 600.664917,401.774231 
	C603.599304,396.321808 609.837524,393.610260 616.940735,395.230225 
	C619.375977,395.785614 621.182983,395.918915 623.442749,394.561951 
	C625.066589,393.586853 627.334778,391.976868 629.379028,393.735931 
	C630.562439,394.754242 630.035156,396.585388 629.905579,398.043457 
	C629.619690,401.258972 626.577698,399.242126 624.961426,400.638367 
	C626.982544,405.127380 628.035461,409.794983 624.997375,414.486237 
	C622.763123,417.936249 619.590210,419.491089 615.655884,420.361969 
	C614.251221,420.672943 611.217896,420.057556 611.386719,422.612122 
	C611.532776,424.820770 614.392029,423.926819 615.921570,424.735474 
	C616.982666,425.296448 618.527039,424.977631 619.856079,424.991211 
	C624.315552,425.036774 628.230164,426.294678 629.762146,430.892517 
	C631.455872,435.975922 629.135620,441.534424 624.455750,444.113159 
	C616.970154,448.237915 609.233337,448.273773 601.554077,444.745911 
	C596.768311,442.547333 595.898560,439.238800 598.602661,433.913147 
z"/>
<path fill="#228833" opacity="1.000000" stroke="none" 
	d="
M271.167236,429.998077 
	C266.901978,426.928253 263.173157,429.199951 259.216705,429.921600 
	C251.901566,431.255798 247.202972,427.991486 244.884750,420.888153 
	C241.202545,409.605408 245.951141,398.640839 255.827637,395.622314 
	C256.455933,395.430267 257.074066,395.163391 257.717224,395.067993 
	C264.997253,393.987732 264.856476,393.990753 265.080719,386.294647 
	C265.150360,383.904846 263.373718,380.678345 266.385254,379.157867 
	C272.324432,376.159363 274.800568,377.942444 274.966949,384.587280 
	C275.324799,398.878693 274.063995,413.196106 275.682892,427.467285 
	C276.093567,431.087769 273.216980,429.584320 271.167236,429.998077 
z"/>
<path fill="#238935" opacity="1.000000" stroke="none" 
	d="
M319.727844,426.222443 
	C311.599243,414.500427 315.789795,399.257904 327.795288,395.632996 
	C327.949402,395.586456 328.073608,395.448669 328.224487,395.382568 
	C330.931061,394.197723 335.239868,396.610016 336.434937,393.723145 
	C337.736023,390.580170 337.504700,386.421997 336.824829,382.923401 
	C335.612091,376.683136 340.787720,379.028503 342.974640,378.272339 
	C346.197906,377.157867 345.982239,380.238983 345.986755,382.361298 
	C346.009125,392.829254 345.970703,403.297394 346.017883,413.765228 
	C346.034241,417.387634 345.828003,420.991302 346.794861,424.618927 
	C347.185272,426.083679 348.605408,428.672180 346.897064,429.488617 
	C344.648773,430.563171 341.310364,431.022156 339.422363,429.142609 
	C337.760620,427.488281 337.112030,427.853241 335.447998,428.712250 
	C329.994812,431.527222 324.589050,430.634857 319.727844,426.222443 
z"/>
<path fill="#228834" opacity="1.000000" stroke="none" 
	d="
M822.878601,391.196716 
	C826.732300,381.206421 841.449585,380.321655 848.595215,383.619537 
	C851.237244,384.838898 850.221863,388.195038 849.675476,390.464508 
	C849.033142,393.132660 846.874573,391.437683 845.600952,390.938507 
	C843.019897,389.926971 840.407349,390.034332 837.761475,390.012390 
	C834.891235,389.988556 832.815979,391.411499 832.226196,394.066406 
	C831.645752,396.678925 832.892761,398.751099 835.383850,400.182281 
	C839.109436,402.322784 843.037476,404.093353 846.493408,406.747162 
	C850.553711,409.864990 852.480957,413.950958 851.746948,418.806763 
	C850.994385,423.785339 848.373840,427.563263 843.024597,429.155884 
	C837.308044,430.857910 831.662292,430.628845 826.017456,429.399872 
	C822.416382,428.615784 820.731506,424.621704 822.165588,421.348663 
	C823.019958,419.398651 824.219910,420.412506 825.446472,420.765198 
	C828.129761,421.536713 830.801331,422.470032 833.545898,422.877899 
	C837.073303,423.402100 840.471252,422.594208 841.563232,418.723145 
	C842.520752,415.328400 840.066772,413.424347 837.439514,411.648041 
	C833.745789,409.150726 829.357117,407.835693 826.082275,404.625916 
	C822.281006,400.900146 820.960144,396.670044 822.878601,391.196716 
z"/>
<path fill="#228834" opacity="1.000000" stroke="none" 
	d="
M653.998901,499.983765 
	C653.989197,503.640137 653.941162,506.800812 653.983582,509.960236 
	C654.011108,512.009155 653.208069,512.973511 651.046509,512.983215 
	C648.957520,512.992615 648.007141,512.221252 648.012329,510.090424 
	C648.042786,497.616180 648.047241,485.141785 648.009460,472.667603 
	C648.003723,470.777679 648.843506,470.213959 650.629761,469.878296 
	C652.435303,469.538971 653.616150,469.483154 654.699951,471.288239 
	C660.058228,480.212402 665.537048,489.064117 670.977844,497.938690 
	C671.617126,498.981567 672.283752,500.007690 673.996094,500.802582 
	C673.996094,492.748932 673.994690,484.695251 673.997498,476.641602 
	C673.997986,475.311096 674.102783,473.974548 674.008789,472.651459 
	C673.839661,470.269745 675.338989,470.136688 677.143616,469.902710 
	C679.570557,469.588074 679.991211,470.835510 679.988770,472.776611 
	C679.973206,485.084717 679.987061,497.392822 679.965942,509.700897 
	C679.963379,511.199768 680.008240,512.717773 677.824219,512.952271 
	C675.217957,513.232056 673.425903,512.399597 672.043579,510.088776 
	C667.456665,502.421082 662.748474,494.825653 658.055664,487.221802 
	C657.056824,485.603333 656.367981,483.715088 653.998901,482.113037 
	C653.998901,488.326813 653.998901,493.907166 653.998901,499.983765 
z"/>
<path fill="#238935" opacity="1.000000" stroke="none" 
	d="
M478.767212,396.659546 
	C479.226349,398.503662 479.986053,398.153595 481.019867,397.611359 
	C482.770996,396.692841 484.535583,395.607880 486.427094,395.182800 
	C494.061707,393.467041 499.199127,396.987915 499.800385,405.000946 
	C500.346344,412.277679 499.963135,419.625214 499.960388,426.941559 
	C499.958801,431.148407 496.718140,429.765594 494.508423,429.964386 
	C492.062042,430.184479 489.866821,430.119568 489.969543,426.524719 
	C490.145203,420.376984 489.962799,414.219879 490.014069,408.067413 
	C490.041687,404.750488 489.529175,401.933167 485.317749,402.049591 
	C481.433624,402.156982 479.793335,404.123047 479.943542,408.115295 
	C480.168457,414.093384 479.823608,420.093048 480.053314,426.070740 
	C480.193024,429.705902 478.322632,430.022522 475.448608,430.058960 
	C472.446228,430.097046 470.896057,429.484222 470.935150,425.973083 
	C471.036438,416.875061 471.558929,407.727814 469.471100,398.741821 
	C469.227997,397.695587 469.104828,396.326263 470.286896,396.348358 
	C473.067352,396.400421 475.875793,393.281006 478.767212,396.659546 
z"/>
<path fill="#238935" opacity="1.000000" stroke="none" 
	d="
M62.838917,402.059937 
	C57.882545,401.834076 55.716499,403.704742 55.936188,408.538513 
	C56.207855,414.515991 55.852215,420.519928 56.033573,426.504364 
	C56.142048,430.083679 53.994396,430.023254 51.512150,430.014313 
	C49.055859,430.005493 46.945877,430.129364 46.956993,426.533691 
	C46.986168,417.096222 47.629673,407.608948 45.657291,398.270203 
	C45.393375,397.020660 45.509701,396.087830 46.731102,396.184448 
	C49.370327,396.393311 52.569435,393.055084 54.464161,396.393768 
	C55.901020,398.925629 56.779442,397.623291 58.150497,397.032532 
	C59.208324,396.576782 60.296188,396.181854 61.391464,395.823303 
	C69.720917,393.096191 75.338417,396.534424 75.872665,405.251160 
	C76.309563,412.379272 75.878777,419.556732 76.004784,426.709320 
	C76.070320,430.429291 73.577309,430.067261 71.276138,429.964386 
	C69.008751,429.863037 65.954201,430.978394 66.006935,426.771393 
	C66.086174,420.449615 66.035820,414.125702 65.984344,407.803131 
	C65.965675,405.510773 66.197182,403.022369 62.838917,402.059937 
z"/>
<path fill="#228834" opacity="1.000000" stroke="none" 
	d="
M516.538574,429.728333 
	C507.903687,427.175812 504.288452,415.888275 506.989380,406.638245 
	C509.259857,398.862396 515.356750,394.566101 524.328186,395.006104 
	C530.968994,395.331787 534.919617,398.886749 537.289429,406.669342 
	C540.156311,416.084290 536.081116,426.264801 528.175842,429.288788 
	C524.500427,430.694733 520.681213,430.121033 516.538574,429.728333 
z"/>
<path fill="#228834" opacity="1.000000" stroke="none" 
	d="
M587.486084,397.273743 
	C594.275085,403.551849 596.242249,414.106506 592.406921,422.066467 
	C589.226379,428.667450 580.614319,432.050354 572.749207,429.788177 
	C566.392517,427.959839 561.231079,419.149567 562.262939,411.888855 
	C564.014282,399.565582 569.470642,394.618927 580.630554,394.947876 
	C583.113953,395.021027 585.067078,396.115326 587.486084,397.273743 
z"/>
<path fill="#228834" opacity="1.000000" stroke="none" 
	d="
M706.369324,396.221680 
	C710.923462,399.352051 712.193970,403.386261 712.118042,408.469116 
	C712.024414,414.734192 711.268188,421.050232 712.756897,427.316620 
	C713.328979,429.724854 708.144897,431.704315 705.486877,429.456909 
	C703.105957,427.443848 701.649536,428.215576 699.512756,429.123322 
	C691.596802,432.486206 684.221741,428.921143 684.336914,421.897278 
	C684.422424,416.688019 688.954285,412.280426 695.508667,411.079224 
	C696.320068,410.930481 697.317688,411.235596 697.965759,410.867249 
	C699.645020,409.912781 702.910217,410.997833 702.828369,407.808136 
	C702.747681,404.663177 700.785400,402.690002 697.619019,402.079132 
	C695.045593,401.582642 692.756775,402.717560 690.363953,403.308380 
	C689.001160,403.644897 687.068726,406.008026 686.375732,403.656281 
	C685.778748,401.630249 684.307312,398.370789 688.077759,396.895599 
	C693.980103,394.586243 699.926880,394.099548 706.369324,396.221680 
z"/>
<path fill="#228834" opacity="1.000000" stroke="none" 
	d="
M784.479492,410.714966 
	C787.036560,410.036774 788.561462,408.933594 787.871765,406.424896 
	C787.207947,404.010620 785.640808,402.424164 783.045227,402.042023 
	C780.300964,401.638000 777.798340,402.715240 775.262329,403.409454 
	C773.728760,403.829285 771.985535,405.353333 771.363403,402.743530 
	C770.912598,400.852692 769.770447,398.215851 772.576233,397.099426 
	C778.220459,394.853577 784.142639,393.976990 790.061218,395.673706 
	C794.670715,396.995209 797.008972,400.196777 797.076416,405.302185 
	C797.172485,412.578033 796.120117,419.914734 797.929932,427.139282 
	C798.141968,427.985840 798.396790,429.546753 797.179932,429.693542 
	C794.814270,429.978790 791.981262,431.113647 790.163330,428.959412 
	C788.734802,427.266541 787.952942,427.809296 786.520020,428.602234 
	C783.727234,430.147705 780.683594,430.550568 777.475159,430.222321 
	C773.613831,429.827301 770.635803,428.335022 770.101379,424.198364 
	C769.544983,419.892120 770.070374,415.915680 774.690002,413.648743 
	C777.698730,412.172302 780.628845,410.678925 784.479492,410.714966 
z"/>
<path fill="#228834" opacity="1.000000" stroke="none" 
	d="
M864.511475,430.108765 
	C860.172363,430.066040 857.827393,427.709442 857.177185,424.223206 
	C856.424927,420.189545 856.886841,416.184357 861.249329,413.952484 
	C864.041199,412.524170 866.711121,411.015503 870.051819,410.849701 
	C872.090454,410.748535 875.124207,410.750641 874.911316,407.291412 
	C874.708008,403.986633 872.685303,402.296631 869.436890,402.027496 
	C866.868835,401.814728 864.574341,402.898682 862.236877,403.669006 
	C860.426819,404.265472 858.903503,404.406006 858.427612,402.156677 
	C858.038757,400.318726 856.991394,398.027374 859.682556,397.072083 
	C865.856567,394.880432 872.149719,393.662018 878.529724,396.270355 
	C882.312439,397.816803 883.973328,400.695740 884.050720,404.842072 
	C884.186584,412.118164 883.243713,419.441833 884.921936,426.673798 
	C885.142212,427.623047 885.676025,429.367493 884.191528,429.703125 
	C881.973083,430.204651 879.016418,430.976379 877.541565,429.319458 
	C875.788025,427.349518 874.802307,427.769196 873.094055,428.826202 
	C870.580200,430.381592 867.707336,430.200531 864.511475,430.108765 
z"/>
<path fill="#228834" opacity="1.000000" stroke="none" 
	d="
M403.231995,422.493713 
	C400.804321,416.933319 400.486481,411.639496 402.130493,406.173248 
	C404.501068,398.291199 411.867920,393.749786 420.374298,395.060944 
	C426.733307,396.041138 431.020905,401.918762 431.046631,409.232361 
	C431.058319,412.563995 430.021912,414.187897 426.459442,414.038910 
	C422.301819,413.864990 418.129547,414.075256 413.965637,414.003845 
	C411.223480,413.956818 410.965912,415.048981 411.863037,417.373535 
	C413.773773,422.324463 418.339447,424.248413 425.177002,422.576111 
	C426.967682,422.138092 428.742737,421.074005 429.663544,423.652039 
	C430.523285,426.059235 429.762573,427.694550 427.354248,428.848480 
	C419.474884,432.623901 407.964355,429.800995 403.231995,422.493713 
z"/>
<path fill="#238935" opacity="1.000000" stroke="none" 
	d="
M388.996155,382.997040 
	C393.322113,382.999908 397.165192,383.221436 400.972382,382.946136 
	C405.041626,382.651886 405.098389,384.999878 405.008484,387.939026 
	C404.901031,391.451965 403.028351,391.002167 400.636719,390.329559 
	C399.233337,389.934875 397.663971,390.173859 396.185547,389.994049 
	C392.853546,389.588806 391.907959,391.119934 391.952179,394.297791 
	C392.095734,404.612793 391.798065,414.936951 392.093445,425.245422 
	C392.216553,429.542572 390.315247,430.024384 386.768158,430.101318 
	C383.055084,430.181885 381.839905,429.007446 381.931580,425.268799 
	C382.159851,415.955811 382.006989,406.633392 382.002563,397.314758 
	C381.998840,389.519684 381.218475,388.589935 373.392365,390.343872 
	C369.179291,391.288086 368.947235,389.665710 368.962158,386.453308 
	C368.974213,383.852417 369.988831,382.932129 372.523438,382.981415 
	C377.846191,383.084900 383.172607,383.002899 388.996155,382.997040 
z"/>
<path fill="#228834" opacity="1.000000" stroke="none" 
	d="
M283.013977,400.767303 
	C283.130829,399.096802 282.791809,397.685913 284.515503,397.064056 
	C290.234497,395.000885 296.109406,393.962921 302.020020,395.673950 
	C306.843353,397.070251 309.067078,400.514709 309.093292,405.789825 
	C309.127777,412.733459 308.126160,419.739166 309.872284,426.640167 
	C310.135254,427.679413 310.299286,429.348724 308.894135,429.642883 
	C306.695618,430.103149 303.886749,431.034607 302.328522,429.113342 
	C300.603455,426.986389 299.418762,427.861267 297.742035,428.637604 
	C295.051056,429.883545 292.355988,430.680878 289.200378,430.214264 
	C285.698242,429.696350 282.930878,428.360352 282.234070,424.897705 
	C281.431824,420.911041 281.613403,416.834656 285.590912,414.202972 
	C288.528595,412.259277 291.693146,411.127869 295.303925,410.827972 
	C297.296356,410.662476 300.389832,410.557831 299.912659,407.032684 
	C299.511383,404.067963 297.752899,402.274170 294.667480,402.038147 
	C291.778839,401.817230 289.093506,402.705231 286.511566,403.827209 
	C283.601624,405.091797 282.992950,403.608582 283.013977,400.767303 
z"/>
<path fill="#228834" opacity="1.000000" stroke="none" 
	d="
M931.934448,422.765503 
	C929.103821,416.504944 929.185791,410.454254 931.349670,404.522064 
	C933.652710,398.208527 939.013550,394.966217 946.152283,394.998383 
	C952.276428,395.025940 956.054199,397.529358 958.242432,402.717194 
	C959.476562,405.642975 958.893738,408.617523 958.902527,411.578003 
	C958.909668,413.999878 957.039551,413.965515 955.345581,413.980103 
	C951.348572,414.014526 947.350281,414.070374 943.354431,414.002197 
	C939.804871,413.941681 939.437439,415.541473 940.746887,418.380188 
	C942.726562,422.671753 947.888611,424.433929 953.724426,422.609436 
	C954.955017,422.224731 956.017334,421.291656 957.425293,421.494965 
	C958.609009,428.045654 957.438171,429.495636 950.958191,430.014648 
	C943.579468,430.605652 936.615784,430.235657 931.934448,422.765503 
z"/>
<path fill="#228834" opacity="1.000000" stroke="none" 
	d="
M159.556412,413.967804 
	C154.943069,413.996185 150.782196,414.140625 146.634125,413.971466 
	C143.412872,413.840088 143.511032,415.441162 144.300278,417.652557 
	C146.031860,422.504517 151.477417,424.561584 157.690857,422.628296 
	C158.919281,422.246124 159.969360,421.291412 161.376755,421.469696 
	C162.572205,427.535126 161.229889,429.432617 155.383011,429.986420 
	C144.033188,431.061493 137.719666,428.772125 135.140671,420.895813 
	C130.997543,408.242523 135.739258,393.642700 152.069290,395.029572 
	C159.514374,395.661896 165.491959,405.306793 162.744400,412.159149 
	C162.252563,413.385803 161.278656,413.892578 159.556412,413.967804 
z"/>
<path fill="#228834" opacity="1.000000" stroke="none" 
	d="
M801.751831,510.381378 
	C799.492676,506.277649 797.209839,502.600922 795.430908,498.694672 
	C794.027161,495.612244 791.638184,495.863831 789.168518,496.111237 
	C785.973999,496.431274 787.161804,499.057739 787.053833,500.796265 
	C786.858154,503.947388 786.930115,507.118256 786.970703,510.279846 
	C787.000183,512.578552 785.679565,512.985718 783.748108,512.974976 
	C781.848450,512.964355 781.030640,512.148193 781.032410,510.284637 
	C781.044128,497.801300 781.031494,485.317963 781.034851,472.834625 
	C781.035217,471.387787 781.382019,470.085846 783.163391,470.100739 
	C787.794983,470.139496 792.459351,469.411530 797.048950,470.557526 
	C802.914795,472.022186 806.709961,475.451935 807.319580,481.729828 
	C807.813782,486.819641 806.783875,491.307617 801.671143,493.712494 
	C799.437378,494.763153 800.470825,496.117493 801.118896,497.336121 
	C802.984375,500.844574 805.126221,504.213013 806.855957,507.783478 
	C807.560852,509.238464 810.189209,511.004120 808.201599,512.402466 
	C806.280457,513.754089 803.345093,513.813599 801.751831,510.381378 
z"/>
<path fill="#238935" opacity="1.000000" stroke="none" 
	d="
M748.001038,415.853943 
	C748.044495,423.068207 748.033386,422.976379 754.638855,422.176666 
	C757.261841,421.859131 759.954529,422.165161 762.600708,421.978088 
	C765.648071,421.762756 767.071350,422.617981 767.090454,426.071655 
	C767.110474,429.707092 765.332336,430.082123 762.459900,430.029724 
	C756.150208,429.914642 749.831665,429.839996 743.527161,430.055420 
	C740.092834,430.172760 738.880981,429.057220 738.936646,425.541138 
	C739.115540,414.249146 739.002075,402.952515 738.996643,391.657654 
	C738.996033,390.329163 739.335083,388.857910 738.886108,387.696533 
	C736.771606,382.225769 741.200562,382.682953 744.013428,382.125641 
	C748.645874,381.207855 747.990723,384.705963 747.994629,387.469147 
	C748.007629,396.770782 748.000366,406.072449 748.001038,415.853943 
z"/>
<path fill="#228834" opacity="1.000000" stroke="none" 
	d="
M101.142303,395.647583 
	C109.419273,394.430695 109.412842,394.432465 111.490692,401.974640 
	C113.088913,407.775909 114.705948,413.572021 116.607346,420.425537 
	C118.899666,412.268555 121.171799,405.205566 122.806221,397.997955 
	C123.846733,393.409393 127.105881,394.918640 129.445099,395.227905 
	C132.683487,395.656097 131.024368,398.282227 130.493561,399.922028 
	C127.548431,409.020172 124.309563,418.025757 121.506081,427.165741 
	C120.615753,430.068420 118.815598,430.194031 116.629211,429.963409 
	C114.224243,429.709747 111.165604,431.230865 109.968697,427.411469 
	C106.810120,417.332397 103.512375,407.296967 100.321686,397.227783 
	C100.211792,396.880981 100.654167,396.359192 101.142303,395.647583 
z"/>
<path fill="#228834" opacity="1.000000" stroke="none" 
	d="
M929.107178,512.968872 
	C927.428894,512.813660 925.875916,513.067261 926.665649,510.787048 
	C931.207153,497.675079 935.662659,484.533356 940.206299,471.422180 
	C940.854126,469.552643 942.862183,469.448334 944.363403,469.268677 
	C946.729309,468.985504 947.285767,471.268890 947.859863,472.867035 
	C951.659241,483.443756 955.314575,494.072205 959.023254,504.681519 
	C959.567322,506.237885 960.282593,507.749542 960.662415,509.342926 
	C960.934143,510.482758 961.961792,512.164978 960.162354,512.747803 
	C958.473999,513.294678 956.444824,513.480774 955.325073,511.420410 
	C954.938354,510.708954 954.910706,509.806396 954.544189,509.079254 
	C953.239441,506.490753 953.762024,502.088043 950.819336,501.453644 
	C946.376221,500.495789 941.560852,500.992737 936.930725,501.291382 
	C934.691162,501.435852 935.059021,504.144440 934.144470,505.626617 
	C932.623657,508.091339 933.578735,512.117004 929.107178,512.968872 
z"/>
<path fill="#228834" opacity="1.000000" stroke="none" 
	d="
M766.650269,489.372437 
	C769.032837,496.127655 771.256226,502.519989 773.439209,508.926178 
	C773.936523,510.385345 775.143066,512.248901 772.588318,512.867188 
	C770.808960,513.297913 768.849060,513.203308 768.115601,510.861481 
	C768.065979,510.703064 768.054565,510.530853 767.992859,510.378265 
	C766.766235,507.349274 766.729919,502.646729 764.059692,501.677246 
	C760.216980,500.282043 755.555115,501.184448 751.246460,501.014343 
	C748.895752,500.921570 748.080688,502.522552 747.419983,504.262054 
	C746.541870,506.573883 745.778625,508.929962 744.993042,511.276093 
	C744.133728,513.842346 741.995300,513.112854 740.396667,512.756348 
	C738.009827,512.224121 739.775391,510.470032 740.073547,509.583313 
	C744.231934,497.215027 748.636414,484.928741 752.716187,472.535309 
	C753.533752,470.051636 755.319824,469.649719 757.131165,469.271667 
	C759.568604,468.763000 760.145508,471.055603 760.740723,472.645874 
	C762.766907,478.059326 764.581360,483.552063 766.650269,489.372437 
z"/>
<path fill="#228834" opacity="1.000000" stroke="none" 
	d="
M201.931244,430.008575 
	C199.616760,430.284485 197.849655,429.599243 196.266708,428.801361 
	C193.366119,427.339355 195.028259,424.602173 195.246689,422.602203 
	C195.552856,419.798828 197.612915,421.949127 198.680283,422.163330 
	C201.704453,422.770142 204.527054,424.804443 207.780380,423.630768 
	C210.789688,422.545074 211.886200,420.816589 208.895142,418.349152 
	C206.954315,416.748138 204.639572,415.880157 202.361221,414.897308 
	C196.275909,412.272339 194.069473,408.585571 195.051697,402.975342 
	C195.786194,398.780090 200.812653,395.145386 206.349640,395.040955 
	C209.149689,394.988129 211.952103,394.786407 214.771896,395.440399 
	C218.186493,396.232361 219.530258,397.524384 218.201996,401.312927 
	C217.432190,403.508606 216.965393,403.938904 214.942123,403.014771 
	C212.726837,402.002930 210.358780,401.034698 207.892487,401.556366 
	C206.405899,401.870819 204.408051,402.042114 204.167023,404.243256 
	C203.971237,406.031128 205.273300,407.003540 206.547913,407.727478 
	C208.844330,409.031677 211.290771,410.068390 213.628906,411.303284 
	C218.122925,413.676758 220.753250,418.287750 219.851486,422.078430 
	C218.784103,426.565308 215.024216,429.422211 209.640778,430.033783 
	C207.191559,430.312012 204.773483,430.477600 201.931244,430.008575 
z"/>
<path fill="#228834" opacity="1.000000" stroke="none" 
	d="
M836.071472,479.841309 
	C839.532043,489.720215 842.920654,499.212921 846.307007,508.706421 
	C846.854431,510.241028 847.905334,512.082581 845.494385,512.786011 
	C843.443604,513.384460 841.378174,513.020569 840.982422,510.306030 
	C839.730347,501.718353 834.409424,500.065491 826.608032,500.788544 
	C822.621094,501.158051 820.587219,502.087036 819.838623,505.972046 
	C819.467590,507.897766 818.625183,509.746582 817.878418,511.582367 
	C817.002563,513.735535 815.059448,513.048706 813.561646,512.807800 
	C811.061768,512.405701 812.709900,510.665741 813.017761,509.749847 
	C817.175110,497.384308 821.546997,485.089966 825.601807,472.691711 
	C826.470398,470.035889 828.355530,469.564423 830.375305,469.236969 
	C832.535217,468.886810 833.015503,470.972595 833.611938,472.426483 
	C834.549377,474.711273 835.216919,477.106750 836.071472,479.841309 
z"/>
<path fill="#228834" opacity="1.000000" stroke="none" 
	d="
M903.685547,513.307983 
	C895.203918,511.662109 891.404358,507.694611 891.092957,499.350861 
	C890.770203,490.704437 891.154724,482.033325 890.938110,473.380341 
	C890.858154,470.186432 892.746155,469.918121 894.934265,469.692902 
	C897.905029,469.387207 896.928101,471.776459 896.945618,473.102264 
	C897.053223,481.259766 896.973267,489.419495 897.016052,497.578186 
	C897.051880,504.419098 900.791260,508.967499 906.262695,508.948151 
	C911.441650,508.929840 916.024414,503.973022 915.916077,497.729828 
	C915.772461,489.452606 916.915588,481.129364 915.166565,472.893127 
	C914.477966,469.650452 917.208130,470.124908 918.952698,469.690155 
	C921.760132,468.990540 920.930054,471.322510 920.940369,472.479156 
	C921.026306,482.135773 921.227173,491.801575 920.905396,501.448364 
	C920.643982,509.282898 913.301331,514.272949 903.685547,513.307983 
z"/>
<path fill="#218833" opacity="1.000000" stroke="none" 
	d="
M857.071899,495.479553 
	C858.393860,501.671173 860.638123,506.471771 867.119995,508.184570 
	C874.103638,510.029938 876.720459,508.175537 877.129883,501.248840 
	C877.276428,498.769745 874.579163,493.993683 880.202881,494.173157 
	C885.312805,494.336212 882.799072,498.786316 882.869812,501.170746 
	C883.184265,511.770874 882.997131,511.666779 872.850891,513.073364 
	C860.061462,514.846252 853.729187,508.709381 851.329651,498.101349 
	C849.069092,488.107941 852.997925,476.383392 860.467346,472.108948 
	C866.355408,468.739532 872.546387,468.329132 879.009827,470.851898 
	C881.580383,471.855286 881.063416,473.615295 880.833252,475.285919 
	C880.488220,477.790192 878.767029,476.349152 877.864929,475.871063 
	C866.760986,469.986145 856.355957,479.533569 856.998108,491.052124 
	C857.072144,492.380219 857.027893,493.714874 857.071899,495.479553 
z"/>
<path fill="#228834" opacity="1.000000" stroke="none" 
	d="
M673.539734,395.034424 
	C680.630493,397.043335 680.606812,397.301575 679.123901,402.468445 
	C678.358582,405.134979 677.220520,404.695374 675.651978,403.760803 
	C671.810425,401.471893 668.140076,401.113495 664.881287,404.681305 
	C661.819641,408.033203 661.581116,414.607544 664.017456,419.103851 
	C666.522583,423.726990 670.671387,423.484680 674.845581,422.842590 
	C676.845886,422.534882 679.036682,420.655853 679.875610,424.134796 
	C680.610107,427.180511 679.006165,428.545685 676.188599,429.448090 
	C667.057922,432.372467 657.152588,428.768585 654.197021,421.227997 
	C650.154358,410.913574 654.194458,399.818817 663.283875,395.887695 
	C666.522644,394.486938 669.828735,395.240417 673.539734,395.034424 
z"/>
<path fill="#228834" opacity="1.000000" stroke="none" 
	d="
M436.638428,416.274963 
	C435.502350,409.075592 437.065216,402.857056 442.403564,398.451263 
	C447.986298,393.843750 454.630432,394.166412 461.285919,396.183716 
	C464.746002,397.232483 463.541443,399.508087 462.952454,401.703644 
	C462.348480,403.954987 461.176422,404.739166 458.981110,403.470306 
	C455.523743,401.471954 451.744019,400.940643 448.884064,403.937256 
	C445.418610,407.568298 445.121399,412.370514 446.617310,417.009674 
	C448.362183,422.420868 452.249237,424.124512 458.554260,422.783356 
	C460.074097,422.460083 462.155579,420.468384 462.848053,423.450897 
	C463.356537,425.640656 463.506073,428.172028 460.426361,429.186798 
	C451.456909,432.142273 437.980865,429.954712 436.638428,416.274963 
z"/>
<path fill="#238935" opacity="1.000000" stroke="none" 
	d="
M545.028137,426.663940 
	C545.012024,412.033264 545.269287,397.864960 544.871887,383.714996 
	C544.716064,378.168945 548.388306,378.488586 551.565491,378.151611 
	C555.426392,377.742126 554.980713,380.898163 554.984070,383.358856 
	C555.003601,397.519836 555.009521,411.680847 554.964966,425.841705 
	C554.959595,427.550354 555.453247,430.128937 552.646362,429.818420 
	C550.008179,429.526611 546.045532,432.214905 545.028137,426.663940 
z"/>
<path fill="#218833" opacity="1.000000" stroke="none" 
	d="
M1017.755737,255.261276 
	C1029.935669,268.117249 1023.824341,288.766663 1006.983459,293.510223 
	C994.214966,297.106781 981.640015,289.073853 978.354797,275.132843 
	C975.715088,263.930969 984.498474,251.385681 996.179504,248.875259 
	C1004.585449,247.068710 1011.403809,249.453415 1017.755737,255.261276 
z"/>
<path fill="#238935" opacity="1.000000" stroke="none" 
	d="
M912.064697,384.879150 
	C912.110840,379.806213 914.775085,377.510590 919.318665,378.092834 
	C921.451355,378.366119 921.974915,379.753998 921.974304,381.605316 
	C921.969299,396.727905 921.944885,411.850586 921.986450,426.973053 
	C921.997131,430.857635 919.180054,429.801514 917.050659,429.982361 
	C914.592285,430.191040 912.942566,429.700256 912.973083,426.576782 
	C913.083557,415.277435 912.982056,403.976196 913.017090,392.675812 
	C913.024841,390.172424 912.934875,387.710205 912.064697,384.879150 
z"/>
<path fill="#238935" opacity="1.000000" stroke="none" 
	d="
M899.188477,378.135071 
	C902.346313,377.839539 903.005249,379.408417 903.000671,381.772644 
	C902.971741,396.586517 902.896362,411.401428 903.054504,426.213715 
	C903.094849,429.994171 901.021606,429.926697 898.307617,430.055939 
	C895.095703,430.208832 893.906616,429.128235 893.948181,425.822876 
	C894.094666,414.173340 894.005615,402.520752 893.993958,390.869324 
	C893.992310,389.206329 894.403687,387.340973 893.801819,385.916687 
	C891.593994,380.692169 893.969788,378.741058 899.188477,378.135071 
z"/>
<path fill="#228834" opacity="1.000000" stroke="none" 
	d="
M177.712173,429.920471 
	C170.038391,430.026031 170.174255,430.022644 169.993378,422.747894 
	C169.792114,414.653076 170.795761,406.521698 169.329926,398.464600 
	C169.073181,397.053345 169.572800,395.889221 170.997879,396.145233 
	C173.394852,396.575958 175.966370,393.037933 178.138214,396.467224 
	C178.662552,397.295135 179.026306,398.224731 179.563248,399.307983 
	C182.353607,397.826538 184.293228,394.663025 188.064667,394.967010 
	C190.346313,395.150909 192.336639,395.673523 191.846054,398.287781 
	C191.434753,400.479492 192.492905,403.774628 188.293488,404.058929 
	C180.455322,404.589630 180.008514,405.216461 180.001984,412.893555 
	C179.998322,417.207825 180.051956,421.523285 179.963120,425.835785 
	C179.931641,427.364410 180.528839,429.327148 177.712173,429.920471 
z"/>
<path fill="#228834" opacity="1.000000" stroke="none" 
	d="
M707.938232,503.802795 
	C703.666626,492.327820 706.033630,478.039612 713.589478,472.786591 
	C718.551575,469.336792 727.791504,468.181763 732.859680,470.951324 
	C734.881653,472.056244 735.436523,473.554718 734.616272,475.466064 
	C733.744263,477.497955 732.208374,476.539337 730.849487,475.926910 
	C717.310486,469.825500 710.748047,483.063202 711.443604,492.967285 
	C711.581604,494.933014 711.824768,496.960541 712.455994,498.810638 
	C715.461060,507.619019 721.932800,510.734955 731.216003,506.941589 
	C732.394592,506.460022 733.929199,504.704041 734.854675,507.024170 
	C735.525452,508.705719 735.521118,510.256073 733.217957,511.440308 
	C724.936096,515.698547 712.045715,513.706177 707.938232,503.802795 
z"/>
<path fill="#228834" opacity="1.000000" stroke="none" 
	d="
M591.230835,487.217957 
	C588.665588,488.381409 589.016357,490.347931 589.008911,492.135864 
	C588.985229,497.793579 588.975159,503.451508 588.996277,509.109222 
	C589.004333,511.263092 588.893738,513.025757 585.905518,513.004089 
	C582.778442,512.981445 583.091248,510.964294 582.991394,508.953644 
	C582.580688,500.683075 583.891846,492.358093 582.211426,484.129120 
	C581.902954,482.618286 582.960327,482.137543 584.017578,481.576996 
	C585.398682,480.844727 586.885681,480.837555 587.421387,482.297638 
	C588.364990,484.869385 589.589233,483.804474 591.054199,483.026611 
	C592.953247,482.018219 594.892944,481.132965 597.125549,480.996613 
	C603.175720,480.627197 606.681946,483.432129 606.920837,489.550354 
	C607.180420,496.196442 606.959290,502.860504 606.999695,509.516418 
	C607.012329,511.601929 606.627075,513.002747 604.024109,512.999390 
	C601.460876,512.996033 600.987488,511.666931 601.003235,509.547363 
	C601.044006,504.056366 601.021484,498.564636 600.994690,493.073395 
	C600.960571,486.081879 598.607788,484.564606 591.230835,487.217957 
z"/>
<path fill="#228834" opacity="1.000000" stroke="none" 
	d="
M547.248169,501.353882 
	C546.669128,494.820496 547.162964,488.921417 552.071533,484.470612 
	C559.376343,477.847198 570.190613,480.762085 573.101196,490.172516 
	C574.924133,496.066193 574.774658,502.038879 571.657410,507.459412 
	C569.050110,511.993134 564.526855,513.979309 559.464844,513.557434 
	C552.713562,512.994812 549.353577,509.393951 547.248169,501.353882 
z"/>
<path fill="#218833" opacity="1.000000" stroke="none" 
	d="
M536.781738,507.606354 
	C538.391602,506.493561 539.269043,507.021027 539.755737,508.338867 
	C540.343933,509.931580 539.384094,510.725250 538.098938,511.428284 
	C530.258484,515.717468 519.994690,513.865112 516.892517,504.417633 
	C514.068909,495.818390 516.701172,484.517365 525.290039,481.790588 
	C534.448730,478.882965 542.428162,485.539703 540.673645,494.939240 
	C540.301208,496.934326 539.293518,498.116669 536.970093,498.028412 
	C533.322388,497.889862 529.660400,498.126343 526.013062,497.983734 
	C521.666504,497.813782 521.268677,499.895447 522.709595,503.246246 
	C524.945984,508.446594 529.184021,509.849213 536.781738,507.606354 
z"/>
<path fill="#238935" opacity="1.000000" stroke="none" 
	d="
M488.002136,493.999207 
	C488.001801,487.832916 487.903259,482.164001 488.042664,476.500977 
	C488.111908,473.687958 486.603302,469.352661 491.815582,469.835480 
	C495.846191,470.208832 493.837311,473.922028 493.894714,476.025909 
	C494.144531,485.185516 494.137543,494.358612 493.939697,503.520630 
	C493.863708,507.040344 495.074493,508.276245 498.535583,508.049072 
	C502.019714,507.820404 505.531738,508.024506 509.031555,508.024261 
	C510.713959,508.024139 511.936249,508.418091 511.936737,510.498108 
	C511.937225,512.576294 510.718597,512.976929 509.034576,512.974609 
	C503.034943,512.966431 497.034790,512.920776 491.035950,512.989319 
	C488.509583,513.018188 487.985107,511.634186 488.005096,509.498260 
	C488.051849,504.498962 488.008820,499.498840 488.002136,493.999207 
z"/>
<path fill="#218833" opacity="1.000000" stroke="none" 
	d="
M94.941025,422.849823 
	C94.664452,426.332397 96.302910,430.173920 90.554001,430.136414 
	C86.300926,430.108643 84.700943,429.119812 84.896904,424.595428 
	C85.255661,416.312439 85.202240,407.995117 84.904655,399.707062 
	C84.755310,395.547607 87.133263,395.244385 90.117020,394.991547 
	C93.439445,394.710052 95.028542,395.922119 94.968506,399.466217 
	C94.839226,407.098694 94.936607,414.735016 94.941025,422.849823 
z"/>
<path fill="#238935" opacity="1.000000" stroke="none" 
	d="
M635.998169,408.192261 
	C636.032043,405.714539 635.745422,403.786438 635.290039,401.814240 
	C634.872437,400.005432 634.091553,397.610474 636.112915,396.318359 
	C638.230164,394.964874 640.795959,394.637878 643.336182,395.169403 
	C645.126343,395.544037 644.959595,397.072601 644.963196,398.362946 
	C644.989502,407.859863 644.915588,417.357422 645.002136,426.853577 
	C645.037170,430.693146 642.357544,429.862396 640.153931,429.989044 
	C637.774658,430.125824 635.903320,429.879608 635.978760,426.662506 
	C636.119385,420.667877 636.006165,414.667267 635.998169,408.192261 
z"/>
<path fill="#238935" opacity="1.000000" stroke="none" 
	d="
M235.999374,423.827789 
	C236.551208,428.359924 235.467056,430.572998 230.690887,430.096466 
	C227.899506,429.817963 227.033768,428.941162 226.954010,426.212311 
	C226.692352,417.259430 227.721527,408.288116 226.130066,399.339111 
	C225.380966,395.126801 229.191177,395.447540 231.843628,395.043915 
	C234.707367,394.608154 236.099991,395.669220 236.041153,398.854553 
	C235.890366,407.017365 235.996414,415.184937 235.999374,423.827789 
z"/>
<path fill="#238935" opacity="1.000000" stroke="none" 
	d="
M691.001587,498.988770 
	C691.002930,490.346588 691.110962,482.199677 690.948059,474.058167 
	C690.890503,471.178650 691.663452,469.740601 694.733582,469.791595 
	C697.880188,469.843811 696.937500,472.193481 696.948730,473.723816 
	C697.034790,485.524811 696.984619,497.326721 697.001160,509.128357 
	C697.004211,511.276367 696.916870,513.037292 693.918762,513.003662 
	C690.807556,512.968689 691.019775,510.981903 691.012268,508.960693 
	C691.000488,505.802551 691.004333,502.644318 691.001587,498.988770 
z"/>
<path fill="#218833" opacity="1.000000" stroke="none" 
	d="
M583.230103,384.177917 
	C580.841553,386.513947 578.724731,388.623322 576.508484,390.622498 
	C575.066772,391.922974 573.237000,391.571899 571.922180,390.679657 
	C570.259277,389.551178 572.088684,388.367340 572.496704,387.294586 
	C573.200806,385.443726 574.488220,383.774078 574.965881,381.885468 
	C576.283752,376.674652 580.504150,377.330963 583.646301,378.276031 
	C588.349304,379.690613 583.574463,381.967926 583.230103,384.177917 
z"/>
<path fill="#218833" opacity="1.000000" stroke="none" 
	d="
M84.999916,382.124695 
	C87.233719,379.198029 89.890541,378.063324 92.907143,379.710144 
	C94.800842,380.743927 95.834473,382.598267 95.362778,385.097595 
	C94.808769,388.033112 93.374420,389.783905 90.344986,390.309540 
	C85.739861,391.108612 83.381310,387.800446 84.999916,382.124695 
z"/>
<path fill="#218833" opacity="1.000000" stroke="none" 
	d="
M640.682007,390.521912 
	C635.213074,389.240479 633.258057,385.542145 635.791199,381.861603 
	C637.312805,379.650818 639.471252,378.375763 642.229126,379.238556 
	C644.445190,379.931824 645.875916,381.541473 645.941895,383.980194 
	C646.034241,387.394409 644.535828,389.679108 640.682007,390.521912 
z"/>
<path fill="#218833" opacity="1.000000" stroke="none" 
	d="
M236.907379,383.309998 
	C237.150879,386.200775 236.440826,388.480743 234.235245,389.681213 
	C231.587112,391.122528 228.687851,391.042725 226.602432,388.601959 
	C224.738770,386.420715 226.140549,381.427246 228.906677,379.932495 
	C232.605453,377.933716 235.226883,379.210663 236.907379,383.309998 
z"/>
<path fill="#218833" opacity="1.000000" stroke="none" 
	d="
M555.730713,476.994415 
	C555.886475,472.825195 559.063965,470.370331 560.806396,467.145569 
	C561.864746,465.186829 564.584717,465.404114 566.062073,466.725006 
	C567.881531,468.351685 565.830933,469.790802 564.700256,470.701538 
	C561.878235,472.974609 560.430359,477.135345 555.730713,476.994415 
z"/>
<path fill="#000000" opacity="1.000000" stroke="none" 
	d="
M242.752686,313.421875 
	C248.047180,297.043274 253.117859,281.142822 258.372040,265.303253 
	C266.125427,241.929382 274.030121,218.605698 281.829895,195.247147 
	C286.328339,181.775345 283.361847,173.227295 271.815033,164.665787 
	C251.272171,149.434113 230.845337,134.045990 210.383804,118.704903 
	C210.160049,118.537148 210.121735,118.122086 209.780212,117.302635 
	C221.965469,119.678612 233.846512,121.956200 245.710724,124.318253 
	C261.551666,127.472038 277.358826,130.799149 293.220276,133.844696 
	C303.765289,135.869446 315.317413,128.260757 317.991577,117.658066 
	C322.391479,100.212814 326.649536,82.731781 330.974426,65.267578 
	C331.369415,63.672508 331.815308,62.090042 332.260529,60.415424 
	C334.575104,61.096165 333.812134,63.068039 334.179260,64.467697 
	C338.827148,82.187729 343.468689,99.909500 348.061096,117.643974 
	C350.758820,128.061768 359.560089,134.943481 370.680084,134.979019 
	C391.008270,135.044006 411.336853,134.999115 431.665253,135.000000 
	C433.487457,135.000092 435.309692,135.000015 437.339844,135.000015 
	C437.266022,137.071930 435.765656,137.485214 434.617615,138.260910 
	C420.595093,147.735565 406.530701,157.149887 392.596588,166.753128 
	C383.330048,173.139542 380.413330,184.748993 385.451813,194.880966 
	C397.776428,219.664810 410.207306,244.395798 422.585114,269.153229 
	C423.388184,270.759491 424.103271,272.409760 424.958984,274.254517 
	C422.495911,275.085999 420.972321,273.474091 419.364563,272.673828 
	C395.178345,260.635315 370.923981,248.725891 346.921326,236.329758 
	C336.126343,230.754700 324.248871,232.680420 315.788086,241.428635 
	C292.277069,265.738281 268.074432,289.378998 243.892944,313.503906 
	C243.297577,313.791687 242.954269,313.859497 242.752686,313.421875 
z"/>
<path fill="#000000" opacity="1.000000" stroke="none" 
	d="
M243.454376,313.521912 
	C243.240463,313.984924 242.840042,314.245972 242.439606,314.506989 
	C242.448273,314.062286 242.456940,313.617584 242.680023,313.044678 
	C243.018906,313.050964 243.143387,313.185486 243.454376,313.521912 
z"/>
<path fill="#000000" opacity="1.000000" stroke="none" 
	d="
M2383.975342,394.557953 
	C2376.945801,408.610291 2361.660156,410.681763 2351.901611,400.387939 
	C2344.788330,392.884613 2345.177246,381.270111 2352.792236,373.681183 
	C2360.408203,366.091217 2371.137939,366.126587 2378.960205,373.335663 
	C2385.408691,379.278442 2386.158203,386.293732 2383.975342,394.557953 
z"/>
<path fill="#000000" opacity="1.000000" stroke="none" 
	d="
M2193.000000,319.998322 
	C2180.354980,319.996643 2168.209717,319.954071 2156.065186,320.021393 
	C2152.944824,320.038666 2151.251953,319.689606 2152.993164,315.891205 
	C2164.358643,291.098145 2175.587891,266.242767 2186.872803,241.412811 
	C2187.131592,240.843506 2187.522461,240.334152 2188.280273,239.097702 
	C2190.568115,243.846191 2192.674072,248.006561 2194.599365,252.248978 
	C2203.960938,272.878204 2213.239502,293.545135 2222.626221,314.162872 
	C2225.294922,320.024628 2225.411133,319.987732 2218.954590,319.995453 
	C2210.469727,320.005615 2201.984863,319.998169 2193.000000,319.998322 
z"/>
<path fill="#000000" opacity="1.000000" stroke="none" 
	d="
M695.997925,234.153229 
	C696.197510,243.074066 695.085022,250.795105 688.497742,257.347412 
	C681.868713,263.941193 664.337646,264.730042 657.052917,260.357727 
	C648.790588,255.398697 648.982605,242.390121 657.190857,236.711884 
	C663.142273,232.594849 670.163025,232.176743 676.962097,231.012329 
	C681.993103,230.150711 687.257019,230.147369 691.927917,227.915024 
	C695.438110,226.237381 696.333496,227.255341 696.009827,230.699524 
	C695.916809,231.689011 695.997131,232.694809 695.997925,234.153229 
z"/>
<path fill="#000000" opacity="1.000000" stroke="none" 
	d="
M147.335144,231.094849 
	C151.363129,230.584732 154.996323,230.318115 158.539413,229.604187 
	C161.890152,228.929001 165.146240,227.784042 168.672897,226.780563 
	C169.615067,235.231384 168.964554,243.269608 165.862946,250.867615 
	C162.898132,258.130493 156.521194,261.497070 149.241745,262.688202 
	C143.711975,263.592987 137.986084,263.524506 132.518417,261.701904 
	C127.734901,260.107361 124.723221,256.872131 124.032944,251.757736 
	C123.110222,244.921127 124.932022,239.437851 131.353104,235.833572 
	C136.236649,233.092331 141.701447,232.637070 147.335144,231.094849 
z"/>
<path fill="#000000" opacity="1.000000" stroke="none" 
	d="
M906.963257,186.862122 
	C917.670898,188.358551 923.590942,198.089645 925.348938,207.566620 
	C926.058533,211.391647 923.292969,209.904617 922.020752,209.918579 
	C910.359497,210.046494 898.696350,209.997345 887.033752,209.997452 
	C884.201416,209.997482 881.361877,209.858795 878.538635,210.017166 
	C875.077209,210.211334 874.655762,208.365936 875.227844,205.627930 
	C878.071106,192.018646 892.691895,183.219330 906.963257,186.862122 
z"/>
<path fill="#000000" opacity="1.000000" stroke="none" 
	d="
M615.735291,401.312775 
	C618.155273,405.021606 618.708435,408.582947 616.812988,412.306763 
	C616.026917,413.851013 614.921692,414.972076 612.994690,414.943237 
	C611.136353,414.915436 609.870728,414.022552 609.117371,412.395935 
	C607.409607,408.708069 607.300659,405.067413 609.890564,401.732117 
	C611.425903,399.754791 613.365234,399.350830 615.735291,401.312775 
z"/>
<path fill="#000000" opacity="1.000000" stroke="none" 
	d="
M264.997253,412.973785 
	C264.994263,415.447327 265.008789,417.437927 264.983154,419.428070 
	C264.959747,421.244629 265.174835,423.226074 262.793640,423.855408 
	C260.595123,424.436462 258.436768,424.243927 256.685120,422.724701 
	C251.939377,418.608673 252.453552,405.829590 257.550476,402.060394 
	C259.234253,400.815216 261.149231,399.725861 263.437469,400.738953 
	C265.739410,401.758148 264.861572,403.840973 264.960754,405.526184 
	C265.097015,407.840363 264.996368,410.168518 264.997253,412.973785 
z"/>
<path fill="#000000" opacity="1.000000" stroke="none" 
	d="
M326.215820,406.613129 
	C327.306061,404.910980 328.105835,403.397186 329.297058,402.313934 
	C330.881165,400.873535 332.866699,399.881439 335.112701,400.597168 
	C337.775055,401.445557 336.924164,403.819489 336.965668,405.669800 
	C337.062439,409.985870 337.040466,414.306305 336.977020,418.623657 
	C336.944244,420.854065 337.567749,423.517578 334.105194,423.977051 
	C330.881683,424.404785 328.225433,423.928558 326.797394,420.454346 
	C324.972198,416.014069 324.519806,411.574738 326.215820,406.613129 
z"/>
<path fill="#000000" opacity="1.000000" stroke="none" 
	d="
M527.214905,405.167786 
	C528.656616,409.807281 528.093506,414.166443 527.811401,418.433624 
	C527.636230,421.084747 526.223145,423.495453 523.028198,424.022308 
	C519.789856,424.556274 518.022278,422.934052 517.044861,420.097290 
	C515.309570,415.061432 515.385193,409.975250 517.140991,405.012482 
	C517.859924,402.980469 519.378845,401.135223 521.848877,401.114380 
	C524.325195,401.093475 526.405945,402.026825 527.214905,405.167786 
z"/>
<path fill="#000000" opacity="1.000000" stroke="none" 
	d="
M575.221130,422.907043 
	C570.843567,416.999329 571.453918,410.826813 573.354797,404.733856 
	C574.021301,402.597473 575.885803,400.932434 578.662048,401.010773 
	C581.272583,401.084503 582.501892,402.717102 583.313843,404.799133 
	C585.298279,409.887726 585.565979,415.053925 583.385864,420.142792 
	C581.852661,423.721710 579.387573,425.370728 575.221130,422.907043 
z"/>
<path fill="#000000" opacity="1.000000" stroke="none" 
	d="
M701.385986,414.436279 
	C703.876587,416.934723 703.418518,419.764557 701.995728,422.348907 
	C700.888611,424.359955 698.625061,424.149200 696.616577,423.950867 
	C695.092896,423.800354 694.276245,422.886902 694.069397,421.374939 
	C693.799683,419.403534 694.266357,417.644165 696.031067,416.645386 
	C697.587158,415.764679 699.342163,415.235504 701.385986,414.436279 
z"/>
<path fill="#000000" opacity="1.000000" stroke="none" 
	d="
M779.578125,418.759705 
	C780.221619,417.302429 780.939453,416.453857 782.098083,415.995148 
	C783.868164,415.294312 786.333374,413.534760 787.396240,414.875183 
	C788.839966,416.695953 788.519958,419.797852 787.585693,422.027130 
	C786.654480,424.248993 784.093262,424.309967 781.924011,423.962616 
	C779.059814,423.503967 778.814880,421.460815 779.578125,418.759705 
z"/>
<path fill="#000000" opacity="1.000000" stroke="none" 
	d="
M874.985168,417.347656 
	C874.660889,419.581482 875.893555,421.876129 873.569397,423.089508 
	C871.322144,424.262695 868.760742,425.158813 866.960510,422.678711 
	C864.964539,419.928925 866.410278,417.353912 869.001648,416.210419 
	C870.704529,415.458954 873.704712,411.520111 874.985168,417.347656 
z"/>
<path fill="#000000" opacity="1.000000" stroke="none" 
	d="
M419.434448,409.924622 
	C418.014343,409.970978 416.979523,410.162109 416.032990,409.953156 
	C414.333160,409.577911 411.516785,411.227325 411.218781,408.152069 
	C410.921936,405.088287 412.967010,402.807037 415.489960,401.400452 
	C417.549774,400.252106 419.798523,401.286438 420.413300,403.293274 
	C421.038391,405.333679 424.139862,408.099854 419.434448,409.924622 
z"/>
<path fill="#000000" opacity="1.000000" stroke="none" 
	d="
M299.950928,420.674255 
	C298.430542,424.847076 295.342133,424.450592 292.507446,423.531586 
	C290.613037,422.917419 290.817108,420.874023 291.362366,419.221558 
	C292.546234,415.633514 295.950684,414.347900 298.816528,414.639740 
	C301.071167,414.869385 299.606506,418.284912 299.950928,420.674255 
z"/>
<path fill="#000000" opacity="1.000000" stroke="none" 
	d="
M949.742798,408.786865 
	C948.518311,410.232513 946.986877,410.292877 945.866577,409.899933 
	C943.895569,409.208466 940.373962,412.114410 940.028137,408.039368 
	C939.754150,404.811127 941.048645,401.587494 944.939331,401.113953 
	C949.104431,400.607025 949.687561,403.742676 949.954224,406.889282 
	C949.995728,407.379608 949.900757,407.881500 949.742798,408.786865 
z"/>
<path fill="#000000" opacity="1.000000" stroke="none" 
	d="
M145.613297,409.964691 
	C141.562622,407.285309 144.588043,404.945709 145.832794,402.889801 
	C147.247070,400.553802 149.663345,400.173340 151.734711,402.247284 
	C153.687912,404.202881 155.245743,407.030243 153.233093,409.274750 
	C151.626007,411.066925 148.482956,409.781403 145.613297,409.964691 
z"/>
<path fill="#000000" opacity="1.000000" stroke="none" 
	d="
M794.487915,475.010773 
	C800.561340,477.209930 802.783020,481.090515 801.129944,485.886139 
	C799.778503,489.806610 792.853821,493.154449 788.812439,491.905518 
	C787.932434,491.633545 787.188171,491.286835 787.183533,490.333069 
	C787.161011,485.678894 786.551819,480.890991 787.462036,476.417358 
	C788.058228,473.487885 791.757812,475.321350 794.487915,475.010773 
z"/>
<path fill="#000000" opacity="1.000000" stroke="none" 
	d="
M947.328857,488.604004 
	C948.021301,491.147888 950.309692,494.185791 948.696899,495.331177 
	C946.244324,497.073090 942.586304,496.071686 939.456482,495.791840 
	C937.736328,495.638092 938.093018,494.250214 938.484680,493.101776 
	C940.073303,488.443207 941.677185,483.789764 943.428650,478.688232 
	C945.580200,481.904449 946.162842,485.162659 947.328857,488.604004 
z"/>
<path fill="#000000" opacity="1.000000" stroke="none" 
	d="
M759.338867,485.694580 
	C759.964539,487.276886 760.434021,488.510834 760.854065,489.761383 
	C762.969299,496.058289 762.956787,495.833832 756.076538,496.078064 
	C751.730164,496.232361 750.197815,495.213013 752.081970,490.826904 
	C753.507996,487.507355 754.520752,484.010803 755.736206,480.599701 
	C755.899780,480.140656 756.173462,479.720795 756.468384,479.140717 
	C758.462585,480.830505 758.386719,483.282135 759.338867,485.694580 
z"/>
<path fill="#000000" opacity="1.000000" stroke="none" 
	d="
M832.336304,495.987427 
	C823.463989,495.997894 823.452942,495.994232 826.100830,487.994629 
	C827.130798,484.882996 828.223267,481.792114 829.472595,478.151794 
	C831.991821,483.456024 833.406128,488.697510 834.974915,493.874664 
	C835.580383,495.872742 834.160828,495.989136 832.336304,495.987427 
z"/>
<path fill="#000000" opacity="1.000000" stroke="none" 
	d="
M997.571777,252.076447 
	C1005.869812,251.266800 1012.224365,253.793442 1016.919067,260.381256 
	C1021.131836,266.292877 1021.343628,275.632385 1017.155151,281.830292 
	C1012.256714,289.078796 1004.344421,292.112122 996.094604,289.904266 
	C988.528931,287.879456 982.487183,280.703583 982.017273,273.184509 
	C981.384949,263.064667 986.570923,255.841858 997.571777,252.076447 
z"/>
<path fill="#000000" opacity="1.000000" stroke="none" 
	d="
M567.042603,504.804565 
	C565.086365,508.589630 562.134277,509.622559 558.546753,508.889252 
	C555.225708,508.210388 554.565857,505.274689 553.735107,502.597870 
	C552.473755,498.533691 552.558594,494.461792 554.034729,490.481384 
	C555.229858,487.258484 557.704102,485.262268 561.078064,485.153046 
	C564.257141,485.050079 566.051392,487.316711 567.139893,490.138672 
	C568.977661,494.902893 569.146484,499.662292 567.042603,504.804565 
z"/>
<path fill="#000000" opacity="1.000000" stroke="none" 
	d="
M528.013550,494.991394 
	C525.751221,494.419708 522.691589,496.437439 522.246643,493.191132 
	C521.800293,489.934479 524.323425,487.796753 526.671326,485.899963 
	C528.769958,484.204498 530.969055,484.943451 532.479858,486.528137 
	C534.165771,488.296692 535.743591,490.687561 534.666992,493.258301 
	C533.494995,496.056824 530.615784,494.657043 528.013550,494.991394 
z"/>
<path fill="#228834" opacity="1.000000" stroke="none" 
	d="
M2367.551270,391.256287 
	C2364.466309,389.176819 2362.980713,389.841064 2363.013428,393.307770 
	C2363.022705,394.305420 2362.985352,395.303497 2362.968262,396.301392 
	C2362.943359,397.781006 2362.565430,398.853424 2360.741455,398.913239 
	C2358.801514,398.976929 2358.028076,398.112885 2358.032715,396.262360 
	C2358.048340,389.775299 2358.025391,383.288086 2358.048340,376.801025 
	C2358.051758,375.819763 2358.143311,374.853455 2359.214844,374.272003 
	C2361.396729,373.088257 2371.681152,374.317749 2373.505615,376.019714 
	C2377.490479,379.737030 2376.594727,383.646393 2373.930176,387.581421 
	C2371.842529,390.664337 2374.833740,392.308136 2375.682129,394.612549 
	C2376.156006,395.899017 2378.994629,397.260345 2376.684082,398.606079 
	C2375.001953,399.585754 2372.429199,399.612030 2371.051270,397.127258 
	C2370.008301,395.246124 2368.888184,393.407562 2367.551270,391.256287 
z"/>
<path fill="#228834" opacity="1.000000" stroke="none" 
	d="
M1003.583801,258.002563 
	C1010.190125,259.126038 1013.763550,264.806946 1010.283386,269.510071 
	C1007.372253,273.444214 1009.227844,275.569733 1010.749084,278.643585 
	C1011.297241,279.751251 1014.091797,281.293335 1011.629761,282.607056 
	C1009.916138,283.521393 1007.374756,283.619141 1006.035034,281.028076 
	C1005.049011,279.121246 1003.896057,277.296661 1002.749573,275.478241 
	C1001.941223,274.196136 1000.678040,273.831879 999.263550,274.223938 
	C997.707642,274.655212 998.133240,276.050629 998.038452,277.133026 
	C997.937012,278.291473 997.959595,279.461426 997.943420,280.626556 
	C997.919678,282.344482 996.953064,282.917145 995.363342,282.868835 
	C993.991638,282.827179 993.096436,282.280579 993.091003,280.831543 
	C993.065430,274.006134 993.069763,267.180542 993.075134,260.355042 
	C993.076782,258.255157 994.541077,258.032043 996.146362,258.024323 
	C998.477356,258.013092 1000.808411,258.007111 1003.583801,258.002563 
z"/>
<path fill="#000000" opacity="1.000000" stroke="none" 
	d="
M2366.009277,379.002716 
	C2368.391113,379.044800 2370.670166,378.779938 2370.822510,381.602753 
	C2370.916504,383.344879 2370.141846,384.989563 2368.055664,384.887329 
	C2366.321045,384.802307 2363.776123,386.106720 2363.179443,383.209167 
	C2362.806152,381.397980 2362.423584,379.040161 2366.009277,379.002716 
z"/>
<path fill="#000000" opacity="1.000000" stroke="none" 
	d="
M998.180786,263.447418 
	C999.586121,261.450317 1001.306519,261.870178 1002.806580,262.416565 
	C1004.500854,263.033630 1006.310730,263.927063 1005.791443,266.310120 
	C1005.254883,268.772644 1003.419739,269.031311 1001.243347,269.024200 
	C998.948364,269.016724 997.814514,268.215118 998.025269,265.840515 
	C998.083679,265.182587 998.072205,264.518494 998.180786,263.447418 
z"/>
</svg>